PathFileType	4	(X/Y/Z)	T00_Trial_0-100.trc
DataRate	CameraRate	NumFrames	NumMarkers	Units	OrigDataRate	OrigDataStartFrame	OrigNumFrames
60	60	9	22	m	60	75	100
Frame#	Time	Hip			RHip			RKnee			RAnkle			RBigToe			RSmallToe			RHeel			LHip			LKnee			LAnkle			LBigToe			LSmallToe			LHeel			Neck			Head			Nose			RShoulder			RElbow			RWrist			LShoulder			LElbow			LWrist		
		X1	Y1	Z1	X2	Y2	Z2	X3	Y3	Z3	X4	Y4	Z4	X5	Y5	Z5	X6	Y6	Z6	X7	Y7	Z7	X8	Y8	Z8	X9	Y9	Z9	X10	Y10	Z10	X11	Y11	Z11	X12	Y12	Z12	X13	Y13	Z13	X14	Y14	Z14	X15	Y15	Z15	X16	Y16	Z16	X17	Y17	Z17	X18	Y18	Z18	X19	Y19	Z19	X20	Y20	Z20	X21	Y21	Z21	X22	Y22	Z22
75	1.25	-0.08045161975366674	0.9218115856790055	-0.8693936477887227	-0.1817788410642328	0.9271784145169776	-0.8665727583940247	-0.14571753467009232	0.5282271813357546	-0.78055808099868	-0.09337810068895352	0.1616999085972149	-0.7276423836816384	-0.0734716960368804	0.08961916210626204	-0.5560203908845083	-0.13134097766926106	0.08695968058478476	-0.5825210590669004	-0.07276395648189074	0.1112485812751818	-0.7191223582206838	0.014103256958600126	0.8907378281819373	-0.8765359259426341	-0.022613182561135443	0.49252216358098827	-0.958876774860108	-0.027826222459732677	0.16809324006896478	-1.1498209209657124	-0.002786950438603147	0.07475950164793987	-0.9887778973408883	0.04005520621126984	0.07402008857933004	-1.041639520054077	-0.03210420278395739	0.12561124181032862	-1.2046863896519464	0.11597224155992754	1.4053832527416732	-0.7726636063867532	0.21677989478596466	1.6000566191085495	-0.5788633076165595	0.16843634609724326	1.4613593604499053	-0.5882889918654622	-0.08722860701354891	1.4447539928906659	-0.8027881044193451	-0.3423363078185176	1.382390134232947	-0.7892488538723592	-0.2879375869292759	1.4740296000123534	-0.5469374923868963	0.2453388702569514	1.304816155735548	-0.8535579553675591	0.3810144459113862	1.0436538277850123	-0.9239805117860372	0.43955812529518795	0.8666784013846068	-0.8032341163620361
76	1.2666666666666666	-0.06941288378207482	0.9149051194459944	-0.8503353564492764	-0.16935844037102904	0.9219577094062524	-0.8425639184504738	-0.12690737112793354	0.5369349576808115	-0.7374299647732339	-0.0729280628484774	0.15564603052727502	-0.7320937974392814	-0.06874729108374052	0.07721185449810453	-0.5588474542547338	-0.12413958961170964	0.07648537537419152	-0.5933120094243313	-0.06519610839626465	0.10501448705425677	-0.7651133339655449	0.019427424275689685	0.8876857277321804	-0.8511253323500978	-0.018326035307960137	0.4893284662808723	-0.9530638913251959	-0.026405536217828617	0.16447053378946586	-1.149462764028093	-0.004898786031023129	0.07038119619966707	-0.9922374220854008	0.03785360869044878	0.07321647937856168	-1.0482171563945197	-0.03330155024319817	0.12315934016417843	-1.2004747673720746	0.10001495618091001	1.4299909270173392	-0.7499011363571894	0.15567767803398264	1.6409267529937337	-0.6938454794354606	0.13727576064579342	1.4588834611171946	-0.5698429474178237	-0.0995322512688761	1.4404717215182183	-0.7988435250114742	-0.355057841990765	1.3711959417239579	-0.7747057148766565	-0.30487187102684543	1.46610157088309	-0.5404997930374913	0.1975859066922139	1.3358198629163271	-0.9379793546738959	0.38501440705096185	1.0567033247769324	-0.9164343518931605	0.45485119087930365	0.8837234893859248	-0.8054734966590844
77	1.2833333333333334	-0.0592165226680909	0.9130005853761998	-0.8419570441402359	-0.16196716917242446	0.9174550285872664	-0.831667430333514	-0.11680625400247797	0.5274204607739998	-0.7294133763576186	-0.05860614456088307	0.14659339498356805	-0.7379807912743727	-0.056107793022094454	0.0742464779137511	-0.5703597321949472	-0.10968213065866407	0.07445436868415964	-0.5995093235278377	-0.0488892529941894	0.09624891424844542	-0.7660216530797133	0.033125391702934895	0.8841877604987246	-0.8413735319216996	-0.016095457425058326	0.4833135048621086	-0.9467699163703587	-0.028635133802592402	0.16350558856382	-1.144157852347929	-0.00161807551977308	0.0597400808652574	-0.9908775251999689	0.04049731273389895	0.06639034242657445	-1.0446094033284181	-0.03238047674961413	0.12372974941154441	-1.195481714749494	0.0898520806844846	1.4316921134268128	-0.7358512177854034	0.17477808128816064	1.6245407407732093	-0.5573864408050089	0.1388378144968336	1.4750266974068111	-0.5745691741324636	-0.11079282764184467	1.4369701842164844	-0.7931717786863077	-0.36309537539858744	1.361558438486287	-0.7727795705153193	-0.32882113286899434	1.45739191818645	-0.5270547503027864	0.2288696326409517	1.3281730351067593	-0.8224621679049765	0.31747681070194433	1.1094785586833498	-1.0347594796746358	0.46830306200652294	0.9179458535269808	-0.7900605135252793
78	1.3	-0.05116640428858098	0.9087779343067542	-0.8396417937380543	-0.15312804224587892	0.9127812390659088	-0.8308431927267104	-0.105773133118703	0.5283612023824831	-0.7063210410135563	-0.051491644907950634	0.13436864108144786	-0.738851754717561	-0.055311724443958425	0.06794260020164516	-0.5652469460829912	-0.10803049617680435	0.06078092152779263	-0.602602280804884	-0.04127875536135538	0.08041666510119047	-0.7697931540144817	0.03955525104123826	0.8777882356657244	-0.8474725646578826	-0.010211262962119747	0.4818917526815281	-0.9430764593531801	-0.026603721314293314	0.16322872728940668	-1.147320508478104	-0.002023783292103649	0.06395165406554833	-0.992723919406852	0.036418589518084646	0.06587348847671083	-1.0435247511342178	-0.03497295284329771	0.12363693135045374	-1.1942449193996392	0.08078719471362023	1.4324265865175205	-0.7307622154360525	0.08547783984948293	1.646234380397529	-0.7492698596123891	0.12580090475453648	1.4713049423633584	-0.5616444153766125	-0.12280919563404455	1.434967032546647	-0.7778303832341131	-0.36949158996790177	1.347276028585538	-0.7692296334335328	-0.3443425062377456	1.4274023906154227	-0.5132062280558773	0.22292541754739034	1.3389524614582888	-0.8185345252100092	0.3911243730775759	1.0899564417247678	-0.9064436086448737	0.46033455085160985	0.8345787842803074	-0.8687469731721237
79	1.3166666666666667	-0.043630383058942186	0.905143182971122	-0.8318052274349529	-0.145159374918988	0.9034679622765162	-0.8180216577653581	-0.10301586032382631	0.5214705318851001	-0.6940748787212134	-0.04954999344451384	0.13635421302198805	-0.7407271635216975	-0.05384105238388448	0.06450591665946943	-0.5646217264053087	-0.10557689465882725	0.06099767405155981	-0.6038869488438264	-0.038993094729922205	0.08548105052891684	-0.7698599429855472	0.047716063562574226	0.8736368842418155	-0.8319506233248878	-0.007739479425121774	0.4823083459289199	-0.9348982540504727	-0.02629465802382371	0.16836681533207648	-1.146543097156611	-0.005374566090870769	0.06388514637737697	-0.9888313250418623	0.03278465749590751	0.06840234969002038	-1.0402698583266758	-0.032154749622086906	0.12840660176673602	-1.1995404045879616	0.06735680501763124	1.4401808861776924	-0.7283135407566915	0.057617024725087666	1.658816629520145	-0.7333049307924424	0.09656296128990374	1.4861206257980328	-0.5451825970137693	-0.13543623056584186	1.4293154784515896	-0.7658462602479259	-0.38145710471566896	1.3347081228964366	-0.7575105933231133	-0.35521716857395963	1.415970393218433	-0.4977770339324675	0.2170093099093939	1.3434645157427063	-0.8056794245748939	0.40209972639258135	1.1067837995989802	-0.8828080303066154	0.472776004862153	0.8704949744252801	-0.876595096008409
80	1.3333333333333333	-0.03677550775074275	0.9097542238265169	-0.8199977114562627	-0.13575795619428688	0.9050485469776878	-0.8005457413754433	-0.09741773953818673	0.5299306429223138	-0.6787899875563217	-0.04862581223086167	0.13240242356972987	-0.7407784129118136	-0.05836879686219011	0.06161236915690156	-0.5617330205579899	-0.1066798985679931	0.0572686496746597	-0.6054877258921814	-0.04119232056293943	0.08213910686917068	-0.7692342627731099	0.05733847959011678	0.8844164008025757	-0.8124576714359364	0.0012687879096171348	0.4819185321030835	-0.9213711221151253	-0.025214628847997952	0.17477584853874165	-1.1479346838582212	-0.004304169129022857	0.07007927003539698	-0.9851730793473322	0.03145252048275541	0.07230861200491294	-1.0398666985423028	-0.030144803036301855	0.13713186470428695	-1.204147552777291	0.05124752319617788	1.434448529281208	-0.7254773659775329	0.03184819241962019	1.6684206479648989	-0.735296984578416	0.08646899687184338	1.489507251806303	-0.5364433769201288	-0.1479164375146148	1.425987167155517	-0.7541347706201065	-0.387330891590839	1.3239531207569293	-0.7572375742089865	-0.3685412609732926	1.398812750011962	-0.4786775593105171	0.16542240862277593	1.373084129686872	-0.9114273088650071	0.3999502578687182	1.1355139609949605	-0.8813361310950505	0.5262880040827195	1.0110360349013032	-0.7783819564623811
81	1.35	-0.029887884133568653	0.9083504014162402	-0.805616945274404	-0.13191965050551624	0.9061385519917627	-0.7927095830425854	-0.09474893389672533	0.5214386705855499	-0.6696988123294253	-0.04824382602556595	0.12919200291572763	-0.739848230841756	-0.05859184975943218	0.06273167557674635	-0.5671218873081465	-0.10967632226602889	0.060954907478374475	-0.6038980487842903	-0.04104282507784569	0.07705131674202381	-0.7707427892950935	0.06616539432735087	0.8799368208076557	-0.8054884271824272	0.007698846045582061	0.47786537878519136	-0.9174806292603652	-0.01760709426055033	0.17562110691095556	-1.1464514313532779	-0.00017106394598006444	0.07067175527591348	-0.988695304659652	0.03952064867565905	0.07759230260937218	-1.0460606227606728	-0.024345134006268282	0.1435227112134012	-1.1982778856112917	0.03685795995843913	1.4389279798146846	-0.7113473633522601	0.08789638582564233	1.6529130587228573	-0.5087252983742241	0.06656732082301443	1.4952504652498135	-0.5192340219358106	-0.16334776986712246	1.418837323895017	-0.7391745368612854	-0.39203555429932474	1.3091822924688405	-0.7551497657962628	-0.38228625129157956	1.3750596398307615	-0.47898367466359076	0.19937077800377076	1.3694728713782498	-0.7801599980122664	0.41284723659705286	1.156552585847603	-0.8534270606824529	0.5606457118311189	0.9784038022454284	-0.7878665160836679
82	1.3666666666666667	-0.02039581448788769	0.9071095007940874	-0.8039995783643787	-0.12481075091220248	0.906471378600608	-0.7841602859951614	-0.09115707355091501	0.5257619679737964	-0.6550031086001372	-0.051057699421610675	0.13357026237040096	-0.7395544987703025	-0.05903938984547685	0.05683655908185712	-0.5670161871439133	-0.1113944488471013	0.060091693930140286	-0.6081520710262545	-0.04485668495185394	0.0795044679193856	-0.7701468994934497	0.07320152468812237	0.8809365297624873	-0.8041281193324168	0.018328885024120844	0.4751662674891163	-0.9075253147053086	-0.009737521918885857	0.1886253592514833	-1.1434875356812617	0.006839643559554958	0.07450861798936446	-0.9934910375678057	0.044708723403278854	0.08500879567073182	-1.045938579110593	-0.01786288549774233	0.15715290096249715	-1.207492759683275	0.025674947631055427	1.440369672396616	-0.6992254762302501	0.06658733784631542	1.6534632448393995	-0.48996016090974776	0.047000427736172336	1.4946177062971167	-0.5062763677979678	-0.17161783670594113	1.418688744336704	-0.7216864155083247	-0.4004972631493911	1.294875316599453	-0.7564557531223658	-0.4070768720045158	1.3554058956742487	-0.47335077772558043	0.14612998163027388	1.3979675332077481	-0.8962780792356844	0.4252326124922671	1.1795804257417128	-0.8317606955361587	0.586272107387942	1.014991907754154	-0.773852272506965
83	1.3833333333333333	-0.01568532024452384	0.9097638129562499	-0.7983862994531389	-0.11763493343553065	0.9078963095918446	-0.7697058391688606	-0.08846629463117094	0.5228815075151332	-0.6527106078822046	-0.05105168530149146	0.12958226942151263	-0.7333654017203679	-0.06006808871114588	0.05996592414944994	-0.5645704713292343	-0.10953839551626392	0.06327827466124628	-0.6109302523887926	-0.043824753621581655	0.0760915616332879	-0.7721260713639474	0.08472885706076567	0.8832007280892844	-0.7910774200916658	0.026671707846862125	0.4730622668555368	-0.8843492282594249	-0.006409219224472134	0.19584871394583334	-1.1341438749556945	-0.007889032728373754	0.09984847539497706	-0.9515434135150028	0.031845277989623576	0.09977463274420241	-1.0059759649828126	-0.011407239053605966	0.16805724019935517	-1.199901507505821	0.01332725629509253	1.446994490888611	-0.6915797278596008	0.06878053873277959	1.6266081649924704	-0.5008991618469961	0.01566166224299591	1.5010237463873932	-0.49043698855638473	-0.18330516791854548	1.4145895930116457	-0.7003436222101572	-0.4086183478929177	1.2773286333239269	-0.7497183503891207	-0.4308927300422085	1.323267460544802	-0.4932693659424181	0.1892168058026163	1.3956140458954198	-0.7478132774626656	0.4178772294022714	1.2264078800796634	-0.838200114338529	0.594143021699833	1.0725269496618475	-0.7571315643594704
